<svg width="24" height="24" viewBox="0 0 24 24" fill="none" xmlns="http://www.w3.org/2000/svg">
<path d="M15 14L14.014 14.164C13.9902 14.0208 13.9978 13.8741 14.0364 13.7342C14.075 13.5943 14.1436 13.4644 14.2374 13.3536C14.3312 13.2429 14.4481 13.1539 14.5797 13.0928C14.7114 13.0317 14.8548 13.0001 15 13V14ZM4 14V15C3.73478 15 3.48043 14.8946 3.29289 14.7071C3.10536 14.5196 3 14.2652 3 14H4ZM6 3H17.36V5H6V3ZM18.56 15H15V13H18.56V15ZM15.987 13.836L16.792 18.671L14.82 19L14.014 14.164L15.987 13.836ZM14.82 21H14.606V19H14.82V21ZM11.277 19.219L8.762 15.445L10.426 14.335L12.942 18.109L11.277 19.219ZM7.93 15H4V13H7.93V15ZM3 14V6H5V14H3ZM20.302 5.412L21.502 11.412L19.542 11.804L18.342 5.804L20.302 5.412ZM8.762 15.445C8.67065 15.3081 8.54692 15.1958 8.40178 15.1182C8.25665 15.0406 8.09459 15 7.93 15V13C8.42387 13 8.91009 13.122 9.3455 13.3551C9.78092 13.5881 10.1521 13.9251 10.426 14.336L8.762 15.445ZM16.792 18.671C16.8398 18.9575 16.8246 19.2509 16.7475 19.5309C16.6704 19.8109 16.5333 20.0707 16.3456 20.2924C16.1579 20.514 15.9242 20.6921 15.6608 20.8143C15.3973 20.9365 15.1104 20.9999 14.82 21V19L16.792 18.671ZM18.56 13C18.708 13.0001 18.8541 12.9673 18.9879 12.904C19.1217 12.8408 19.2397 12.7486 19.3336 12.6342C19.4274 12.5198 19.4947 12.386 19.5306 12.2424C19.5664 12.0988 19.571 11.9491 19.542 11.804L21.502 11.412C21.589 11.8472 21.5783 12.2962 21.4708 12.7267C21.3633 13.1573 21.1617 13.5586 20.8804 13.9018C20.599 14.245 20.2451 14.5215 19.844 14.7114C19.443 14.9013 19.0048 14.9999 18.561 15L18.56 13ZM17.36 3C18.0536 2.99996 18.7258 3.24026 19.2622 3.68003C19.7986 4.11979 20.166 4.73183 20.302 5.412L18.342 5.804C18.2966 5.57705 18.174 5.37287 17.9949 5.22625C17.8158 5.07964 17.5914 4.99968 17.36 5V3ZM14.606 21C13.9475 21 13.2993 20.8374 12.7187 20.5267C12.1382 20.2161 11.6423 19.7668 11.277 19.219L12.942 18.109C13.1246 18.383 13.372 18.6077 13.6623 18.7631C13.9526 18.9186 14.2767 18.9999 14.606 19V21ZM6 5C5.73478 5 5.48043 5.10536 5.29289 5.29289C5.10536 5.48043 5 5.73478 5 6H3C3 5.20435 3.31607 4.44129 3.87868 3.87868C4.44129 3.31607 5.20435 3 6 3V5Z" fill="white"/>
<path d="M8 14V4" stroke="white" stroke-width="2"/>
</svg>
